<svg width="3035" height="693" viewBox="0 0 3035 693" fill="none" xmlns="http://www.w3.org/2000/svg">
<g clip-path="url(#clip0_5_38)">
<circle cx="345.5" cy="347.5" r="345.5" fill="#B1800B"/>
<rect x="265.554" y="144" width="82.3408" height="394.785" rx="10" transform="rotate(10 265.554 144)" fill="white"/>
<rect x="332.203" y="155.752" width="199.648" height="71.0613" rx="10" transform="rotate(10 332.203 155.752)" fill="white"/>
<rect x="297.065" y="332.795" width="172.577" height="71.0613" rx="10" transform="rotate(10 297.065 332.795)" fill="white"/>
<rect x="222.235" y="242.558" width="156.786" height="42.8624" rx="10" transform="rotate(10 222.235 242.558)" fill="white"/>
<path d="M906.64 567.16C895.2 567.16 886.88 563.867 881.68 557.28C876.48 550.347 874.747 540.987 876.48 529.2L923.8 228.64C925.533 217.893 929.52 209.92 935.76 204.72C942.347 199.173 951.013 196.4 961.76 196.4L1139.6 196.4C1148.61 196.4 1155.55 198.307 1160.4 202.12C1165.25 205.587 1167.68 210.787 1167.68 217.72C1167.68 227.427 1164.91 235.227 1159.36 241.12C1154.16 246.667 1146.53 249.44 1136.48 249.44L987.76 249.44L971.12 352.92L1103.72 352.92C1112.73 352.92 1119.67 354.827 1124.52 358.64C1129.37 362.107 1131.8 367.307 1131.8 374.24C1131.8 383.947 1129.03 391.747 1123.48 397.64C1118.28 403.187 1110.65 405.96 1100.6 405.96L962.8 405.96L942.52 534.4C939.053 556.24 927.093 567.16 906.64 567.16ZM1266.25 568.2C1237.48 568.2 1216.68 560.053 1203.85 543.76C1191.03 527.12 1187.04 503.027 1191.89 471.48L1231.41 224.48C1233.15 213.733 1237.13 205.76 1243.37 200.56C1249.61 195.013 1258.11 192.24 1268.85 192.24C1278.91 192.24 1286.19 195.533 1290.69 202.12C1295.55 208.707 1297.11 218.067 1295.37 230.2L1256.89 470.96C1254.47 486.213 1255.68 497.48 1260.53 504.76C1265.73 511.693 1274.05 515.16 1285.49 515.16C1289.31 515.16 1292.43 514.987 1294.85 514.64C1297.28 513.947 1299.53 513.6 1301.61 513.6C1305.08 513.6 1307.85 514.813 1309.93 517.24C1312.01 519.667 1313.05 524.347 1313.05 531.28C1313.05 541.333 1310.97 549.133 1306.81 554.68C1302.65 559.88 1297.63 563.347 1291.73 565.08C1288.61 566.12 1284.63 566.813 1279.77 567.16C1274.92 567.853 1270.41 568.2 1266.25 568.2ZM1466.17 568.2C1441.21 568.2 1419.71 563.52 1401.69 554.16C1384.01 544.8 1370.31 531.453 1360.61 514.12C1351.25 496.787 1346.57 476.507 1346.57 453.28C1346.57 430.4 1350.21 409.773 1357.49 391.4C1364.77 373.027 1374.82 357.253 1387.65 344.08C1400.82 330.907 1415.9 320.853 1432.89 313.92C1449.87 306.987 1468.25 303.52 1488.01 303.52C1512.97 303.52 1534.29 308.2 1551.97 317.56C1569.99 326.92 1583.69 340.267 1593.05 357.6C1602.75 374.587 1607.61 394.867 1607.61 418.44C1607.61 441.32 1603.97 461.947 1596.69 480.32C1589.41 498.693 1579.18 514.467 1566.01 527.64C1553.18 540.813 1538.27 550.867 1521.29 557.8C1504.3 564.733 1485.93 568.2 1466.17 568.2ZM1467.73 518.8C1483.67 518.8 1497.02 514.293 1507.77 505.28C1518.86 496.267 1527.35 483.96 1533.25 468.36C1539.14 452.76 1542.09 435.427 1542.09 416.36C1542.09 395.907 1537.06 380.307 1527.01 369.56C1517.3 358.467 1503.78 352.92 1486.45 352.92C1470.85 352.92 1457.5 357.427 1446.41 366.44C1435.31 375.453 1426.82 387.76 1420.93 403.36C1415.03 418.613 1412.09 435.947 1412.09 455.36C1412.09 475.813 1416.94 491.587 1426.65 502.68C1436.7 513.427 1450.39 518.8 1467.73 518.8ZM1672.7 567.16C1662.64 567.16 1655.19 563.867 1650.34 557.28C1645.83 550.693 1644.44 541.507 1646.18 529.72L1694.54 223.44C1696.27 212.693 1700.26 204.893 1706.5 200.04C1712.74 194.84 1721.23 192.24 1731.98 192.24C1742.03 192.24 1749.31 195.707 1753.82 202.64C1758.67 209.227 1760.23 218.587 1758.5 230.72L1728.86 416.88L1729.9 416.88L1831.3 323.8C1838.23 317.213 1844.3 312.36 1849.5 309.24C1855.04 306.12 1861.63 304.56 1869.26 304.56C1877.92 304.56 1884.16 306.987 1887.98 311.84C1892.14 316.693 1893.7 322.76 1892.66 330.04C1891.96 336.973 1888.32 343.56 1881.74 349.8L1779.82 445.48L1779.82 417.4L1862.5 521.4C1868.04 528.333 1870.47 535.44 1869.78 542.72C1869.43 549.653 1866.83 555.547 1861.98 560.4C1857.12 564.907 1850.54 567.16 1842.22 567.16C1833.2 567.16 1826.1 565.253 1820.9 561.44C1816.04 557.28 1810.15 551.04 1803.22 542.72L1725.22 447.04L1724.18 447.04L1710.14 535.96C1707.02 556.76 1694.54 567.16 1672.7 567.16ZM1950.97 567.16C1940.91 567.16 1933.46 563.867 1928.61 557.28C1924.1 550.347 1922.71 540.987 1924.45 529.2L1955.13 336.8C1956.86 326.053 1960.85 318.08 1967.09 312.88C1973.33 307.333 1981.82 304.56 1992.57 304.56C2002.62 304.56 2009.9 307.853 2014.41 314.44C2019.26 321.027 2020.82 330.387 2019.09 342.52L1988.41 534.92C1986.67 545.667 1982.69 553.813 1976.45 559.36C1970.55 564.56 1962.06 567.16 1950.97 567.16ZM2000.89 256.72C1989.1 256.72 1980.26 253.947 1974.37 248.4C1968.82 242.507 1966.57 234.36 1967.61 223.96C1968.99 212.173 1973.5 203.333 1981.13 197.44C1988.75 191.2 1998.98 188.08 2011.81 188.08C2023.59 188.08 2032.43 191.027 2038.33 196.92C2044.22 202.467 2046.47 210.44 2045.09 220.84C2043.7 232.627 2039.19 241.64 2031.57 247.88C2024.29 253.773 2014.06 256.72 2000.89 256.72Z" fill="#D0970F"/>
<path d="M2175.55 567.68C2149.55 567.68 2127.88 563 2110.55 553.64C2093.56 543.933 2080.73 530.587 2072.07 513.6C2063.75 496.267 2059.59 476.333 2059.59 453.8C2059.59 435.08 2062.36 416.88 2067.91 399.2C2073.45 381.173 2081.77 365.227 2092.87 351.36C2104.31 337.147 2118.87 325.88 2136.55 317.56C2154.23 308.893 2175.03 304.56 2198.95 304.56C2211.77 304.56 2224.25 306.293 2236.39 309.76C2248.87 312.88 2259.61 317.213 2268.63 322.76C2274.52 326.227 2278.51 330.213 2280.59 334.72C2283.01 338.88 2283.88 343.213 2283.19 347.72C2282.49 351.88 2280.76 355.52 2277.99 358.64C2275.56 361.76 2272.27 363.84 2268.11 364.88C2263.95 365.573 2259.44 364.533 2254.59 361.76C2246.27 356.213 2237.77 352.227 2229.11 349.8C2220.79 347.373 2211.6 346.16 2201.55 346.16C2185.6 346.16 2172.08 349.28 2160.99 355.52C2149.89 361.413 2140.71 369.733 2133.43 380.48C2126.49 390.88 2121.47 402.32 2118.35 414.8C2115.23 427.28 2113.67 440.107 2113.67 453.28C2113.67 475.467 2118.87 493.147 2129.27 506.32C2140.01 519.493 2157.69 526.08 2182.31 526.08C2189.93 526.08 2197.91 525.04 2206.23 522.96C2214.55 520.88 2223.04 517.067 2231.71 511.52C2235.87 509.44 2239.85 508.747 2243.67 509.44C2247.48 510.133 2250.77 512.04 2253.55 515.16C2256.32 517.933 2258.05 521.227 2258.75 525.04C2259.44 528.853 2258.92 532.84 2257.19 537C2255.8 541.16 2252.51 544.8 2247.31 547.92C2238.29 554.16 2227.03 559.013 2213.51 562.48C2199.99 565.947 2187.33 567.68 2175.55 567.68ZM2411.64 567.68C2387.72 567.68 2367.27 563.173 2350.28 554.16C2333.3 545.147 2320.12 532.147 2310.76 515.16C2301.75 498.173 2297.24 478.067 2297.24 454.84C2297.24 432.653 2300.54 412.547 2307.12 394.52C2314.06 376.147 2323.59 360.2 2335.72 346.68C2348.2 333.16 2362.76 322.76 2379.4 315.48C2396.04 308.2 2414.24 304.56 2434 304.56C2457.92 304.56 2478.38 309.24 2495.36 318.6C2512.35 327.613 2525.35 340.613 2534.36 357.6C2543.72 374.24 2548.4 394.173 2548.4 417.4C2548.4 439.587 2544.94 459.867 2538 478.24C2531.42 496.613 2521.88 512.56 2509.4 526.08C2497.27 539.253 2482.88 549.48 2466.24 556.76C2449.6 564.04 2431.4 567.68 2411.64 567.68ZM2412.68 527.12C2430.71 527.12 2445.79 522.093 2457.92 512.04C2470.06 501.987 2479.24 488.64 2485.48 472C2492.07 455.013 2495.36 436.293 2495.36 415.84C2495.36 392.96 2489.82 375.627 2478.72 363.84C2467.63 351.707 2452.38 345.64 2432.96 345.64C2415.28 345.64 2400.2 350.667 2387.72 360.72C2375.59 370.427 2366.23 383.773 2359.64 400.76C2353.4 417.4 2350.28 436.12 2350.28 456.92C2350.28 479.453 2355.83 496.787 2366.92 508.92C2378.02 521.053 2393.27 527.12 2412.68 527.12ZM2612.07 566.64C2604.09 566.64 2598.2 564.04 2594.39 558.84C2590.57 553.293 2589.36 545.667 2590.75 535.96L2623.51 331.6C2624.89 322.933 2628.01 316.52 2632.87 312.36C2638.07 307.853 2645 305.6 2653.67 305.6C2661.64 305.6 2667.53 308.373 2671.35 313.92C2675.16 319.12 2676.37 326.573 2674.99 336.28L2642.23 540.64C2640.84 549.307 2637.72 555.893 2632.87 560.4C2628.01 564.56 2621.08 566.64 2612.07 566.64ZM2662.51 252.56C2652.8 252.56 2645.52 250.133 2640.67 245.28C2635.81 240.427 2633.73 233.667 2634.43 225C2635.47 214.6 2639.28 206.8 2645.87 201.6C2652.45 196.053 2661.12 193.28 2671.87 193.28C2681.92 193.28 2689.37 195.707 2694.23 200.56C2699.08 205.413 2701.16 212.173 2700.47 220.84C2699.43 231.24 2695.61 239.213 2689.03 244.76C2682.79 249.96 2673.95 252.56 2662.51 252.56ZM2739.03 566.64C2731.06 566.64 2725.16 563.867 2721.35 558.32C2717.54 552.773 2716.32 545.147 2717.71 535.44L2749.95 331.6C2751.34 322.933 2754.63 316.52 2759.83 312.36C2765.03 307.853 2771.79 305.6 2780.11 305.6C2787.74 305.6 2793.46 308.027 2797.27 312.88C2801.08 317.733 2802.12 325.013 2800.39 334.72L2794.67 373.2L2791.55 364.36C2800.22 344.947 2812.7 330.213 2828.99 320.16C2845.63 309.76 2865.22 304.56 2887.75 304.56C2906.47 304.56 2922.07 308.373 2934.55 316C2947.38 323.627 2956.39 335.24 2961.59 350.84C2967.14 366.44 2968 386.2 2964.19 410.12L2943.91 540.64C2942.87 549.307 2939.75 555.893 2934.55 560.4C2929.35 564.56 2922.42 566.64 2913.75 566.64C2905.43 566.64 2899.36 563.867 2895.55 558.32C2891.74 552.773 2890.52 545.32 2891.91 535.96L2911.67 411.16C2915.14 389.32 2913.4 373.2 2906.47 362.8C2899.54 352.053 2887.06 346.68 2869.03 346.68C2845.8 346.68 2827.26 353.787 2813.39 368C2799.87 382.213 2791.2 401.627 2787.39 426.24L2769.19 540.64C2766.76 557.973 2756.71 566.64 2739.03 566.64Z" fill="white"/>
</g>
<defs>
<clipPath id="clip0_5_38">
<rect width="3035" height="693" fill="white"/>
</clipPath>
</defs>
</svg>
